<svg id="06b7ffbe-28b1-4e47-9bbf-ee3dbe8b25a6" data-name="Layer 1" xmlns="http://www.w3.org/2000/svg" xmlns:xlink="http://www.w3.org/1999/xlink" viewBox="0 0 668.09 219.19"><defs><style>.\30 5ab7d53-abd0-4a9a-b715-95650c1e609f,.dff4822a-a965-4f18-9934-643c60901a18{fill:#636466;}.\30 1af3e30-a15c-434c-b3cd-5023782a8de5{fill:#ec2127;}.dff4822a-a965-4f18-9934-643c60901a18{fill-rule:evenodd;}.e3fea45c-1653-4c44-8fc9-ae890d39b4b2{fill:url(#133004c0-a98f-4488-b707-55a062003ccc);}.\33 034b8f8-bdc2-408e-8104-05f0631135c0{fill:url(#21e48e43-57b0-42df-bc5b-8118c25c836d);}.\37 6f1ee26-2b97-4822-9a11-408b54561181{fill:#231f20;}</style><linearGradient id="133004c0-a98f-4488-b707-55a062003ccc" x1="136.45" y1="204.03" x2="465.28" y2="204.03" gradientUnits="userSpaceOnUse"><stop offset="0" stop-color="#5d0f12"/><stop offset="0.08" stop-color="#771216"/><stop offset="0.2" stop-color="#9b171b"/><stop offset="0.33" stop-color="#b81a1f"/><stop offset="0.47" stop-color="#cf1d23"/><stop offset="0.62" stop-color="#df1f25"/><stop offset="0.78" stop-color="#e92127"/><stop offset="1" stop-color="#ec2127"/></linearGradient><linearGradient id="21e48e43-57b0-42df-bc5b-8118c25c836d" x1="28.4" y1="111.69" x2="687.54" y2="111.69" xlink:href="#133004c0-a98f-4488-b707-55a062003ccc"/></defs><title>logo</title><path class="05ab7d53-abd0-4a9a-b715-95650c1e609f" d="M157.5,216H141.79l8.51-31.76a1.9,1.9,0,0,0-.61-2.27,4.31,4.31,0,0,0-2.52-.71h-2.78L135.08,216H119.31L132,168.7h18.56a23.12,23.12,0,0,1,7.77,1.18,13,13,0,0,1,5.3,3.35,10.36,10.36,0,0,1,2.56,5.21,15.3,15.3,0,0,1-.43,6.77Z" transform="translate(-19.46 -57.91)"/><path class="05ab7d53-abd0-4a9a-b715-95650c1e609f" d="M164.47,216l12.68-47.33h33.59l-3.39,12.66h-17.4l-1.41,5.28H204l-3,11.38H185.48L184,203.57h17.4L198.05,216H164.47Z" transform="translate(-19.46 -57.91)"/><path class="05ab7d53-abd0-4a9a-b715-95650c1e609f" d="M218.41,216l3.38-12.6h10.43a17.83,17.83,0,0,0,4.57-.37,2,2,0,0,0,1.39-1.39,2.15,2.15,0,0,0-.18-1.59,5.62,5.62,0,0,0-1.22-1.52,16.17,16.17,0,0,0-1.88-1.45l-2.15-1.46a25.32,25.32,0,0,1-3.25-2.64,13.44,13.44,0,0,1-2.44-3.15,10.71,10.71,0,0,1-1.24-3.69,9.85,9.85,0,0,1,.39-4.27,15.93,15.93,0,0,1,7.19-9.89q5.42-3.31,14.9-3.31h16.32l-3.45,12.87H250.87a17.93,17.93,0,0,0-4,.3,1.7,1.7,0,0,0-1.38,1.12c-0.2.72,0.41,1.58,1.81,2.57l5.4,3.86a20.09,20.09,0,0,1,5.67,5.85,8.37,8.37,0,0,1,.79,6.67,19.59,19.59,0,0,1-3.34,7.14,15.42,15.42,0,0,1-5.24,4.3,22.34,22.34,0,0,1-7,2.1A62.61,62.61,0,0,1,235,216H218.41Z" transform="translate(-19.46 -57.91)"/><path class="05ab7d53-abd0-4a9a-b715-95650c1e609f" d="M266.48,216l9.27-34.6h-9.21L270,168.7h34.8l-3.41,12.73h-9.21L282.87,216H266.48Z" transform="translate(-19.46 -57.91)"/><path class="05ab7d53-abd0-4a9a-b715-95650c1e609f" d="M319.7,218.06a20.16,20.16,0,0,1-9.06-2,17.32,17.32,0,0,1-6.43-5.31,17.86,17.86,0,0,1-3.17-7.85,22.84,22.84,0,0,1,.63-9.58,30.52,30.52,0,0,1,4.5-9.58,36.44,36.44,0,0,1,7.39-7.85,35.28,35.28,0,0,1,9.27-5.28,28,28,0,0,1,10.1-1.93,20.72,20.72,0,0,1,9.13,1.93,17,17,0,0,1,6.44,5.28,18.13,18.13,0,0,1,3.22,7.82,22.22,22.22,0,0,1-.61,9.61,30.17,30.17,0,0,1-4.55,9.65,37.4,37.4,0,0,1-7.42,7.85,35.25,35.25,0,0,1-9.31,5.28A28.23,28.23,0,0,1,319.7,218.06ZM324,201.54a9.46,9.46,0,0,0,3.39-.64,11.73,11.73,0,0,0,3.11-1.76,12.1,12.1,0,0,0,2.46-2.61,10,10,0,0,0,1.5-3.18,7.53,7.53,0,0,0,.21-3.18,6,6,0,0,0-1.06-2.61,5.68,5.68,0,0,0-2.17-1.76,7,7,0,0,0-3-.64,9.17,9.17,0,0,0-3.35.64,12,12,0,0,0-3.08,1.76,12.26,12.26,0,0,0-2.46,2.61,10,10,0,0,0-1.49,3.18,7.41,7.41,0,0,0-.21,3.18,6,6,0,0,0,1.06,2.61A5.68,5.68,0,0,0,321,200.9,6.76,6.76,0,0,0,324,201.54Z" transform="translate(-19.46 -57.91)"/><path class="05ab7d53-abd0-4a9a-b715-95650c1e609f" d="M350.65,216l12.68-47.33h18a28,28,0,0,1,7.82,1,13.7,13.7,0,0,1,5.7,3.11,10.23,10.23,0,0,1,2.93,5.35,16.38,16.38,0,0,1-.48,7.72,23.48,23.48,0,0,1-4.86,9.65,22.76,22.76,0,0,1-15,7.89,24.11,24.11,0,0,1-7.08-.2L367,216H350.65Zm23.25-25.12a12.28,12.28,0,0,0,2.72.1,7.13,7.13,0,0,0,2.51-.64,5.7,5.7,0,0,0,2-1.62,7.85,7.85,0,0,0,1.33-2.84,3.9,3.9,0,0,0,0-2.64,3,3,0,0,0-1.41-1.42,5.34,5.34,0,0,0-2.23-.51,16.83,16.83,0,0,0-2.39.1Z" transform="translate(-19.46 -57.91)"/><polygon class="01af3e30-a15c-434c-b3cd-5023782a8de5" points="496.17 110.8 489.97 133.94 472.96 133.94 479.16 110.8 457.56 110.8 438.69 181.21 460.29 181.21 468.52 150.49 485.53 150.49 477.3 181.21 498.8 181.21 517.66 110.8 496.17 110.8"/><path class="01af3e30-a15c-434c-b3cd-5023782a8de5" d="M604.07,217.55a43.11,43.11,0,0,0,6.84-13.93,30.78,30.78,0,0,0,.92-13.72,25.39,25.39,0,0,0-4.72-11,24.79,24.79,0,0,0-9.43-7.42,31.84,31.84,0,0,0-13.51-2.73A43.6,43.6,0,0,0,569,171.48a54.27,54.27,0,0,0-25.16,19.07,43.72,43.72,0,0,0-6.76,13.84,31.53,31.53,0,0,0-1,13.68,24.75,24.75,0,0,0,4.66,11.08,25.21,25.21,0,0,0,9.42,7.48,31,31,0,0,0,13.38,2.78,44,44,0,0,0,15.19-2.78,54.11,54.11,0,0,0,14-7.66A55.37,55.37,0,0,0,604.07,217.55Zm-16-13.16a16.39,16.39,0,0,1-2.55,5.22,20.17,20.17,0,0,1-4.14,4.21,19.92,19.92,0,0,1-5.25,2.86,17,17,0,0,1-5.82,1.06,12.47,12.47,0,0,1-5.36-1.12A10.06,10.06,0,0,1,559.1,209a12.26,12.26,0,0,1,.36-5.39,16.22,16.22,0,0,1,2.55-5.22,20.28,20.28,0,0,1,9.32-7.05,16.45,16.45,0,0,1,5.77-1.07,12.86,12.86,0,0,1,5.4,1.11,10.24,10.24,0,0,1,4,3.09A10.35,10.35,0,0,1,588.4,199,12.38,12.38,0,0,1,588,204.39Z" transform="translate(-19.46 -57.91)"/><path class="01af3e30-a15c-434c-b3cd-5023782a8de5" d="M639.86,219.26a30.89,30.89,0,0,0,6,.54h0a44.93,44.93,0,0,0,4.59-.25,34.19,34.19,0,0,0,11.68-3.42,34.56,34.56,0,0,0,10.57-8.31,35.16,35.16,0,0,0,7.2-14.36,24,24,0,0,0,.73-11.25,14.43,14.43,0,0,0-4.11-7.52,19.91,19.91,0,0,0-8.22-4.47,42.07,42.07,0,0,0-11.71-1.51H629.78l-18.87,70.41H633l5.4-20.14Zm7.86-33.77,1-.12a26.41,26.41,0,0,1,3.95-.17,9.84,9.84,0,0,1,4.12.95,6.22,6.22,0,0,1,2.92,2.93,7.4,7.4,0,0,1,.1,5.19,13.61,13.61,0,0,1-2.37,5,10.3,10.3,0,0,1-3.71,3,12.58,12.58,0,0,1-4.44,1.14c-0.5,0-1,.06-1.51.06a20.74,20.74,0,0,1-3.05-.23l-1.73-.26Z" transform="translate(-19.46 -57.91)"/><path class="dff4822a-a965-4f18-9934-643c60901a18" d="M93.61,135.27a55.13,55.13,0,0,1,18.67-.49c10.87,1.65,18.35,5.77,23.67,11.56-6.81-3.82-14.71-6.67-26.64-6.19-14.92.59-35.79,11.16-47.61,24.4A81.48,81.48,0,0,0,49.36,182c-11.57,23.29-8.94,39.44,1.25,51.67,5.91,7.09,14.69,12.13,30.41,11.51,12.26-.48,26.06-5.52,39.26-16,3.22-2.55,5.93-5.27,8.71-7.88h4.56a6.52,6.52,0,0,1-.44.69c-11.67,16-32,33.25-57.27,37.94-12.6,2.34-21.93,1.39-29.2-1.39-20.2-7.71-28-23.1-27.11-43.87,0.56-12.6,4.71-26.56,17.67-43.8C50.8,152.77,72.19,139.23,93.61,135.27Z" transform="translate(-19.46 -57.91)"/><path class="dff4822a-a965-4f18-9934-643c60901a18" d="M104,145.09c12-2.11,18.76.47,24.86,3.57s10.41,7.7,12.1,13.91H130.83l-0.12-.15c-4.41-6.3-11-11-22.25-12.31-8.31-1-22.64.74-40,13.12C81.89,151.8,90.64,147.43,104,145.09Z" transform="translate(-19.46 -57.91)"/><path class="e3fea45c-1653-4c44-8fc9-ae890d39b4b2" d="M443,168.7c-9.66,0-17.34,1.66-22.82,4.95a23.87,23.87,0,0,0-10.83,14.27V188a13.24,13.24,0,0,0-.75,5.57,13.89,13.89,0,0,0,1.47,4.88,17.64,17.64,0,0,0,3.21,4.33,37.45,37.45,0,0,0,4.73,4l3.39,2.35a28.17,28.17,0,0,1,3.37,2.69,11.94,11.94,0,0,1,2.59,3.44c0.75,1.58.89,2,.39,3.62a6.6,6.6,0,0,1-4.42,4.4c-1.08.36-3,.77-8.48,0.77H140.21l-3.76,15.37H418.7a99,99,0,0,0,13.55-.85,34.13,34.13,0,0,0,10.53-3.11,23.4,23.4,0,0,0,7.73-6.16,30.37,30.37,0,0,0,5.25-10.52,10.36,10.36,0,0,0-.63-8.37,28.15,28.15,0,0,0-8-8.51c-3.44-2.54-6.32-4.65-8.55-6.27a12.63,12.63,0,0,1-3.16-3.08,5.34,5.34,0,0,1-.85-4.68,6,6,0,0,1,4.61-4,31.5,31.5,0,0,1,7.36-.6h14.38l4.39-14.49H443Z" transform="translate(-19.46 -57.91)"/><path class="3034b8f8-bdc2-408e-8104-05f0631135c0" d="M648.54,150.66c2.41,0.63,18,6.67,28.19,10.89s10.82,3.92,10.82,3.92A162.58,162.58,0,0,0,649.6,141c-54-25-150.81-25.15-150.81-25.15-5.27.43-10.66-.83-15.67-2.33-2.28-.68-4.54-1.46-6.77-2.31a21.93,21.93,0,0,1-7.14-3.88q-3-2.62-6.21-5.08-6.25-4.85-12.94-9.1a192.25,192.25,0,0,0-27.28-14.31A233,233,0,0,0,395,69c-8.75-2.51-17.64-4.55-26.59-6.17q-11.82-2.15-23.78-3.35-9.63-1-19.31-1.35c-4.4-.17-8.8-0.24-13.2-0.18-1.81,0-3.62.06-5.43,0.16h-0.05c-87,.26-145.48,24.78-191.61,40.6S32.6,114.6,32.6,114.6c-1-.29-2.3,1.05-2.88,1.73a2.44,2.44,0,0,0-.92,3.52s8.44,16.28,7,21.19c0,0-1,1.9-.28,2.1,0,0,4.56-2.64,5-4.94,0,0,2.33-7,8.7-8.26,0,0,14.43-2.59,22.68-3.1l1,0s13.06-2,21.38-3c22.62-2.8,128.43-6.85,128.43-6.85-6.9-2.22-37.63-1.82-37.63-1.82A26.92,26.92,0,0,1,170,106.93c-1.62-2.08,3.14-4.92,3.14-4.92C278.13,51.76,380.8,77,380.8,77,428,90.26,469,121.84,469,121.84c15.89,10.19,49.18,10.09,49.18,10.09C606,131.26,648.54,150.66,648.54,150.66Z" transform="translate(-19.46 -57.91)"/><path class="05ab7d53-abd0-4a9a-b715-95650c1e609f" d="M160.1,248.82l-10.39,17.33v10.7h-5.38v-10.7l-10.1-17.33h6.16l4.23,7.39q0.45,0.78,1.81,3.41l0.57,1.13h0.16l0.6-1.13q1.33-2.55,1.83-3.41l4.27-7.39h6.24Z" transform="translate(-19.46 -57.91)"/><path class="05ab7d53-abd0-4a9a-b715-95650c1e609f" d="M172.89,248.58q5.07,0,7.23.94,3.7,1.6,4.5,6.41a48.15,48.15,0,0,1,.29,6.63,56,56,0,0,1-.27,6.9,10.25,10.25,0,0,1-1.35,4.1,6.6,6.6,0,0,1-2.81,2.39,12.78,12.78,0,0,1-4.58,1q-1.7.12-3.9,0.12a32.52,32.52,0,0,1-4.91-.29,9.69,9.69,0,0,1-3.08-1,6.86,6.86,0,0,1-3.35-4,14.81,14.81,0,0,1-.7-4.27q-0.06-1.58-.06-3.78a62.75,62.75,0,0,1,.29-7.6,10,10,0,0,1,1.42-4.1,6.91,6.91,0,0,1,3-2.41,11.75,11.75,0,0,1,4.29-1Q170.53,248.58,172.89,248.58Zm-0.64,4.62a14.1,14.1,0,0,0-4.64.49q-1.89.78-2.18,4.13-0.08,1.09-.08,6.2,0,2.79.08,3.82a8.13,8.13,0,0,0,.64,2.78,2.69,2.69,0,0,0,1.42,1.35,16,16,0,0,0,5.11.51,13.8,13.8,0,0,0,4.6-.49q1.77-.8,2.13-4.19,0.1-.94.1-5.75,0-3.33-.08-4.25a8,8,0,0,0-.63-2.72,2.83,2.83,0,0,0-1.43-1.37,6.66,6.66,0,0,0-2.3-.45Q174,253.2,172.25,253.2Z" transform="translate(-19.46 -57.91)"/><path class="05ab7d53-abd0-4a9a-b715-95650c1e609f" d="M206.46,248.82h5.38v18.64a14.44,14.44,0,0,1-.78,5.6,6.41,6.41,0,0,1-4.37,3.53,25.61,25.61,0,0,1-6.1.49,49.31,49.31,0,0,1-5.12-.19,10.35,10.35,0,0,1-2.95-.73,5.86,5.86,0,0,1-3.43-3.49,15.65,15.65,0,0,1-.57-4.91V248.82h5.38v18.95a7.26,7.26,0,0,0,.47,3.18,3.27,3.27,0,0,0,2.46,1.35,24,24,0,0,0,3.41.16,15,15,0,0,0,4.48-.45q1.46-.53,1.68-2.85,0.06-.62.06-1.6V248.82Z" transform="translate(-19.46 -57.91)"/><path class="05ab7d53-abd0-4a9a-b715-95650c1e609f" d="M216.74,276.85v-28H230.5a12.83,12.83,0,0,1,5.93,1,5.63,5.63,0,0,1,2.77,3.45,14.08,14.08,0,0,1,.41,3.82,16,16,0,0,1-.47,4.52,4.44,4.44,0,0,1-2.77,3,13,13,0,0,1-1.83.45v0.21q4.84,0.29,4.76,5.44v6.12h-5.44V271.8a4.51,4.51,0,0,0-1-3.39,4.45,4.45,0,0,0-3.18-.9h-7.53v9.34h-5.38Zm5.38-13.92h7.53a5.3,5.3,0,0,0,3.41-.84,3,3,0,0,0,1-1.85,14.05,14.05,0,0,0,.1-2.09,10.6,10.6,0,0,0-.27-2.94,2.54,2.54,0,0,0-2.28-1.66,9.94,9.94,0,0,0-1.58-.1h-7.88v9.49Z" transform="translate(-19.46 -57.91)"/><path class="05ab7d53-abd0-4a9a-b715-95650c1e609f" d="M271.31,271.47H259.22l-1.74,5.38h-5.63l9.32-28h8l9.46,28H273.1Zm-1.23-4-4.85-14.54-4.76,14.54h9.61Z" transform="translate(-19.46 -57.91)"/><path class="05ab7d53-abd0-4a9a-b715-95650c1e609f" d="M298,248.82h5.38v18.64a14.44,14.44,0,0,1-.78,5.6,6.41,6.41,0,0,1-4.37,3.53,25.61,25.61,0,0,1-6.1.49,49.31,49.31,0,0,1-5.12-.19,10.35,10.35,0,0,1-2.95-.73,5.86,5.86,0,0,1-3.43-3.49,15.65,15.65,0,0,1-.57-4.91V248.82h5.38v18.95a7.26,7.26,0,0,0,.47,3.18,3.27,3.27,0,0,0,2.46,1.35,24,24,0,0,0,3.41.16,15,15,0,0,0,4.48-.45q1.46-.53,1.68-2.85,0.06-.62.06-1.6V248.82Z" transform="translate(-19.46 -57.91)"/><path class="05ab7d53-abd0-4a9a-b715-95650c1e609f" d="M319.54,253.57v23.28h-5.38v-23.3h-8.09v-4.72h21.78v4.74h-8.31Z" transform="translate(-19.46 -57.91)"/><path class="05ab7d53-abd0-4a9a-b715-95650c1e609f" d="M342.16,248.58q5.07,0,7.23.94,3.7,1.6,4.5,6.41a48.15,48.15,0,0,1,.29,6.63,56,56,0,0,1-.27,6.9,10.25,10.25,0,0,1-1.35,4.1,6.6,6.6,0,0,1-2.81,2.39,12.78,12.78,0,0,1-4.58,1q-1.7.12-3.9,0.12a32.52,32.52,0,0,1-4.91-.29,9.69,9.69,0,0,1-3.08-1,6.86,6.86,0,0,1-3.35-4,14.81,14.81,0,0,1-.7-4.27q-0.06-1.58-.06-3.78a62.75,62.75,0,0,1,.29-7.6,10,10,0,0,1,1.42-4.1,6.91,6.91,0,0,1,3-2.41,11.75,11.75,0,0,1,4.29-1Q339.8,248.58,342.16,248.58Zm-0.64,4.62a14.1,14.1,0,0,0-4.64.49q-1.89.78-2.18,4.13-0.08,1.09-.08,6.2,0,2.79.08,3.82a8.13,8.13,0,0,0,.64,2.78,2.69,2.69,0,0,0,1.42,1.35,16,16,0,0,0,5.11.51,13.8,13.8,0,0,0,4.6-.49q1.77-.8,2.13-4.19,0.1-.94.1-5.75,0-3.33-.08-4.25a8,8,0,0,0-.63-2.72,2.83,2.83,0,0,0-1.43-1.37,6.66,6.66,0,0,0-2.3-.45Q343.23,253.2,341.52,253.2Z" transform="translate(-19.46 -57.91)"/><path class="05ab7d53-abd0-4a9a-b715-95650c1e609f" d="M390.53,248.82v28h-5.32V261.57q0-2.18.21-6.24l0.1-2.07h-0.16l-0.64,2q-1.42,4.39-2,5.83l-6.16,15.81h-4.85l-6.22-15.69q-0.57-1.48-2-5.83l-0.64-1.93h-0.16l0.1,2q0.23,4.11.23,6.14v15.27h-5.32v-28h8.66l5,13q0.6,1.58,2,5.83l0.64,1.93h0.18l0.6-1.93q1.29-4.13,1.93-5.79l4.93-13h8.85Z" transform="translate(-19.46 -57.91)"/><path class="05ab7d53-abd0-4a9a-b715-95650c1e609f" d="M407.12,248.58q5.07,0,7.23.94,3.7,1.6,4.5,6.41a48.15,48.15,0,0,1,.29,6.63,56,56,0,0,1-.27,6.9,10.25,10.25,0,0,1-1.35,4.1,6.6,6.6,0,0,1-2.81,2.39,12.78,12.78,0,0,1-4.58,1q-1.7.12-3.9,0.12a32.52,32.52,0,0,1-4.91-.29,9.69,9.69,0,0,1-3.08-1,6.86,6.86,0,0,1-3.35-4,14.81,14.81,0,0,1-.7-4.27q-0.06-1.58-.06-3.78a62.75,62.75,0,0,1,.29-7.6,10,10,0,0,1,1.42-4.1,6.91,6.91,0,0,1,3-2.41,11.75,11.75,0,0,1,4.29-1Q404.76,248.58,407.12,248.58Zm-0.64,4.62a14.1,14.1,0,0,0-4.64.49q-1.89.78-2.18,4.13-0.08,1.09-.08,6.2,0,2.79.08,3.82a8.13,8.13,0,0,0,.64,2.78,2.69,2.69,0,0,0,1.42,1.35,16,16,0,0,0,5.11.51,13.8,13.8,0,0,0,4.6-.49q1.77-.8,2.13-4.19,0.1-.94.1-5.75,0-3.33-.08-4.25a8,8,0,0,0-.63-2.72,2.83,2.83,0,0,0-1.43-1.37,6.66,6.66,0,0,0-2.3-.45Q408.19,253.2,406.48,253.2Z" transform="translate(-19.46 -57.91)"/><path class="05ab7d53-abd0-4a9a-b715-95650c1e609f" d="M433.83,253.57v23.28h-5.38v-23.3h-8.09v-4.72h21.78v4.74h-8.31Z" transform="translate(-19.46 -57.91)"/><path class="05ab7d53-abd0-4a9a-b715-95650c1e609f" d="M450.21,248.82v28h-5.38v-28h5.38Z" transform="translate(-19.46 -57.91)"/><path class="05ab7d53-abd0-4a9a-b715-95650c1e609f" d="M473.13,248.82h5.63l-9,28h-8.17l-9-28h5.52l5.26,15.87q0.72,2.13,2.2,7.64h0.14q1.42-5.15,2.22-7.62Z" transform="translate(-19.46 -57.91)"/><path class="05ab7d53-abd0-4a9a-b715-95650c1e609f" d="M485.89,253.3v7.23H499v3.94H485.89v7.9h13.92v4.48h-19.3v-28h19.18v4.47h-13.8Z" transform="translate(-19.46 -57.91)"/><path class="05ab7d53-abd0-4a9a-b715-95650c1e609f" d="M535.07,257h-5.19a6.18,6.18,0,0,0-.51-3,2.69,2.69,0,0,0-1.91-1,15.47,15.47,0,0,0-2.65-.16,27.3,27.3,0,0,0-3.32.14,4.55,4.55,0,0,0-1.71.53q-1.17.72-1.17,3.06a4.93,4.93,0,0,0,.49,2.48q0.55,1,2.69,1.17,0.66,0.08,4,.27a40.66,40.66,0,0,1,5,.49,5.7,5.7,0,0,1,4.19,2.81,10.78,10.78,0,0,1,.74,4.62,17.08,17.08,0,0,1-.4,4.17A5.13,5.13,0,0,1,534,275a7.52,7.52,0,0,1-4.7,1.91q-2,.21-4.8.21a28.55,28.55,0,0,1-7.16-.6,5.32,5.32,0,0,1-3.68-3.41,17.86,17.86,0,0,1-.55-5.11h5.17a16.43,16.43,0,0,0,.14,2.35,3.42,3.42,0,0,0,.51,1.28,3,3,0,0,0,2.34,1.09q0.7,0.06,3.78.06a15.59,15.59,0,0,0,3.17-.23,2.86,2.86,0,0,0,1.53-.84,5.26,5.26,0,0,0,.68-3.22q0-2.57-1.54-3.12a35.82,35.82,0,0,0-5.36-.53q-3.53-.21-4.6-0.39a6.49,6.49,0,0,1-4.62-2.48,9.75,9.75,0,0,1-1.11-5.26q0-4.82,2.22-6.45a8.57,8.57,0,0,1,4.46-1.48q2.07-.19,4.62-0.19a27.12,27.12,0,0,1,6,.45,5.44,5.44,0,0,1,4.06,3.39,10.34,10.34,0,0,1,.53,3.63V257Z" transform="translate(-19.46 -57.91)"/><path class="05ab7d53-abd0-4a9a-b715-95650c1e609f" d="M550.52,253.57v23.28h-5.38v-23.3h-8.09v-4.72h21.78v4.74h-8.31Z" transform="translate(-19.46 -57.91)"/><path class="05ab7d53-abd0-4a9a-b715-95650c1e609f" d="M573.15,248.58q5.07,0,7.23.94,3.7,1.6,4.5,6.41a48.07,48.07,0,0,1,.29,6.63,56,56,0,0,1-.27,6.9,10.25,10.25,0,0,1-1.35,4.1,6.6,6.6,0,0,1-2.81,2.39,12.79,12.79,0,0,1-4.58,1q-1.7.12-3.9,0.12a32.52,32.52,0,0,1-4.91-.29,9.69,9.69,0,0,1-3.08-1,6.85,6.85,0,0,1-3.35-4,14.81,14.81,0,0,1-.7-4.27q-0.06-1.58-.06-3.78a62.75,62.75,0,0,1,.29-7.6,10,10,0,0,1,1.42-4.1,6.91,6.91,0,0,1,3-2.41,11.75,11.75,0,0,1,4.29-1Q570.79,248.58,573.15,248.58Zm-0.64,4.62a14.1,14.1,0,0,0-4.64.49q-1.89.78-2.18,4.13-0.08,1.09-.08,6.2,0,2.79.08,3.82a8.12,8.12,0,0,0,.64,2.78,2.69,2.69,0,0,0,1.42,1.35,16,16,0,0,0,5.11.51,13.8,13.8,0,0,0,4.6-.49q1.77-.8,2.13-4.19,0.1-.94.1-5.75,0-3.33-.08-4.25a8,8,0,0,0-.63-2.72,2.83,2.83,0,0,0-1.43-1.37,6.66,6.66,0,0,0-2.3-.45Q574.22,253.2,572.51,253.2Z" transform="translate(-19.46 -57.91)"/><path class="05ab7d53-abd0-4a9a-b715-95650c1e609f" d="M588.75,276.85v-28h13.76a12.84,12.84,0,0,1,5.93,1,5.63,5.63,0,0,1,2.77,3.45,14.09,14.09,0,0,1,.41,3.82,16,16,0,0,1-.47,4.52,4.44,4.44,0,0,1-2.77,3,13,13,0,0,1-1.83.45v0.21q4.85,0.29,4.76,5.44v6.12h-5.44V271.8a4.51,4.51,0,0,0-1-3.39,4.45,4.45,0,0,0-3.18-.9h-7.53v9.34h-5.38Zm5.38-13.92h7.53a5.3,5.3,0,0,0,3.41-.84,3,3,0,0,0,1-1.85,14.05,14.05,0,0,0,.1-2.09,10.63,10.63,0,0,0-.27-2.94,2.55,2.55,0,0,0-2.28-1.66,9.94,9.94,0,0,0-1.58-.1h-7.88v9.49Z" transform="translate(-19.46 -57.91)"/><path class="05ab7d53-abd0-4a9a-b715-95650c1e609f" d="M620.68,253.3v7.23h13.08v3.94H620.68v7.9H634.6v4.48H615.3v-28h19.18v4.47h-13.8Z" transform="translate(-19.46 -57.91)"/><path class="76f1ee26-2b97-4822-9a11-408b54561181" d="M677.49,234.81h-1.56V234h4v0.79h-1.56v4.31h-0.91v-4.31Z" transform="translate(-19.46 -57.91)"/><path class="76f1ee26-2b97-4822-9a11-408b54561181" d="M680.55,234H682l1.33,3.62h0l1.31-3.62H686v5.1h-0.9V235h0l-1.55,4.1H683l-1.53-4.1h0v4.1h-0.86V234Z" transform="translate(-19.46 -57.91)"/></svg>